<?xml version="1.0" standalone="no"?>
<!DOCTYPE svg PUBLIC "-//W3C//DTD SVG 20010904//EN"
 "http://www.w3.org/TR/2001/REC-SVG-20010904/DTD/svg10.dtd">
<svg version="1.0" xmlns="http://www.w3.org/2000/svg"
 width="500.000000pt" height="500.000000pt" viewBox="0 0 500.000000 500.000000"
 preserveAspectRatio="xMidYMid meet">
<metadata>
Created by potrace 1.14, written by Peter Selinger 2001-2017
</metadata>
<g transform="translate(0.000000,500.000000) scale(0.100000,-0.100000)"
fill="#000000" stroke="none">
<path d="M1780 4604 c-14 -2 -65 -11 -115 -20 -463 -80 -886 -397 -1100 -824
-59 -117 -110 -267 -137 -403 -30 -149 -32 -439 -4 -592 149 -814 876 -1402
1696 -1372 288 11 542 87 766 228 34 22 65 39 70 39 5 0 286 -276 624 -614
401 -400 629 -621 656 -634 107 -54 225 -34 310 51 78 79 100 168 68 278 -15
52 -37 75 -642 682 -608 608 -626 628 -612 650 8 12 38 65 67 117 211 378 251
860 108 1285 -165 489 -574 894 -1065 1054 -176 57 -277 73 -480 76 -102 2
-196 1 -210 -1z m450 -269 c496 -100 910 -466 1069 -945 87 -265 92 -548 15
-818 -95 -332 -352 -636 -668 -792 -203 -99 -358 -134 -591 -134 -242 0 -403
37 -620 145 -283 139 -517 378 -651 664 -180 385 -178 808 6 1180 72 145 134
231 255 351 184 182 448 318 685 353 41 6 86 13 100 15 50 9 327 -4 400 -19z"/>
</g>
</svg>
